<?xml version="1.0" encoding="UTF-8"?>
<svg  width="217px" height="237px" id="Layer_1" xmlns="http://www.w3.org/2000/svg" viewBox="0 0 2046.56 2046.56">
  <defs>
    <style>
      .cls-1 {
        fill: #a58177;
      }

      .cls-2 {
        fill: #3d3243;
      }

      .cls-3 {
        fill: #e7e8ea;
      }

      .cls-4 {
        fill: #655056;
      }

      .cls-5 {
        fill: #c0c4d0;
      }

      .cls-6 {
        fill: #f3b493;
      }

      .cls-7 {
        fill: #fcfcfc;
      }

      .cls-8 {
        fill: #f1b595;
      }

      .cls-9 {
        fill: #efb496;
      }

      .cls-10 {
        fill: #f3b495;
      }

      .cls-11 {
        fill: #4187c0;
        stroke: #000;
        stroke-miterlimit: 10;
      }

      .cls-12 {
        fill: #6d5658;
      }

      .cls-13 {
        fill: #413747;
      }

      .cls-14 {
        fill: #a78277;
      }

      .cls-15 {
        fill: #806461;
      }

      .cls-16 {
        fill: #3f3445;
      }

      .cls-17 {
        fill: #40364b;
      }

      .cls-18 {
        fill: #acb2bf;
      }

      .cls-19 {
        fill: #4b3e49;
      }

      .cls-20 {
        fill: #f1b596;
      }

      .cls-21 {
        fill: #c57a68;
      }

      .cls-22 {
        fill: #574751;
      }

      .cls-23 {
        fill: #c27764;
      }

      .cls-24 {
        fill: #adb5c4;
      }

      .cls-25 {
        fill: #95746c;
      }

      .cls-26 {
        fill: #745b5d;
      }

      .cls-27 {
        fill: #c37763;
      }

      .cls-28 {
        fill: #c07765;
      }

      .cls-29 {
        fill: #c17563;
      }

      .cls-30 {
        fill: #3e3344;
      }

      .cls-31 {
        fill: #94726c;
      }

      .cls-32 {
        fill: #3f3846;
      }

      .cls-33 {
        fill: #677991;
      }
    </style>
  </defs>
  <circle class="cls-11" cx="1023.28" cy="1023.28" r="1022.78"/>
  <path class="cls-3" d="M1654.63,1825.01c-.71.22-2.56-1.27-1.91-.1,1.76,3.18-.26,4.18-2.05,5.59-15.97,12.54-32.55,24.21-49.28,35.71-21.26,14.62-43.33,27.94-65.45,41.16-27.88,16.67-57.02,30.96-86.38,44.81-25.9,12.22-52.46,22.95-79.4,32.52-26.64,9.46-53.6,18.06-81.06,25.08-30.51,7.8-61.1,15.18-92.15,20.28-23.13,3.8-46.36,7.24-69.78,9.02-21.39,1.62-42.7,4.33-64.22,4.03-1.45-.02-2.9.59-4.35.9h-27c0-56.65.09-113.3-.1-169.94-.02-5.65,1.76-9.13,6.36-12.34,26.47-18.51,52.77-37.25,79.01-56.07,2.85-2.04,4.59-1.93,7.34.16,33.24,25.34,66.58,50.55,99.91,75.78,4.92,3.72,5.65,3.52,7.69-2.51,7.75-22.86,15.64-45.68,23.11-68.63,14.8-45.44,30.53-90.56,46.01-135.77,1.28-3.75,4.32-7.34,2.6-11.82,1.3-6.08,5.81-11.23,5.12-17.88.99,2.46,2.97,3.68,5.31,4.76,51.24,23.68,102.43,47.45,153.66,71.15,39.89,18.45,79.86,36.73,119.72,55.25,23.47,10.9,44.24,25.8,62.98,43.58,1.63,1.55,3.83,2.75,4.31,5.29Z"/>
  <path class="cls-3" d="M991.59,2044c-2-1.09-4.19-.9-6.35-.98-26.43-1.02-52.81-2.52-79.08-5.72-21.14-2.58-42.25-5.29-63.2-9.2-33.39-6.23-66.52-13.49-99.23-22.8-25.15-7.15-49.97-15.32-74.51-24.21-23.13-8.38-46.03-17.51-68.24-28.2-16.94-8.16-34.05-16.02-50.59-24.92-27.09-14.59-53.84-29.79-79.69-46.56-14.25-9.24-28.23-18.87-42.12-28.62-12.24-8.59-24-17.86-35.98-26.82,1.51-.01,2.27-1.11,3.21-2.08,19.54-20.2,42.26-35.98,67.67-47.81,59.42-27.66,118.95-55.08,178.41-82.64,31.54-14.62,62.91-29.62,94.81-43.46,1.62-.7,2.81-1.67,3.87-2.95,1.64,4.71,3.28,9.42,4.93,14.13-1.74.89-1.04,2.2-.56,3.43,6.81,17.72,12.95,35.68,18.97,53.69,10.83,32.36,21.86,64.66,32.73,97.01,7.26,21.62,14.37,43.3,21.6,64.93,1.76,5.27,2.29,5.35,6.71,1.99,33.26-25.3,66.56-50.55,99.74-75.96,3.24-2.48,5.54-2.51,8.77-.11,9.62,7.14,19.42,14.04,29.2,20.96,16.98,12.02,33.98,24.01,51.01,35.97,2.66,1.87,4,4.16,4,7.52-.06,57.8-.06,115.61-.07,173.41h-26Z"/>
  <path class="cls-5" d="M1017.59,2044c.01-57.8,0-115.61.07-173.41,0-3.36-1.34-5.65-4-7.52-17.02-11.96-34.03-23.95-51.01-35.97-9.78-6.92-19.59-13.82-29.2-20.96-3.22-2.39-5.53-2.36-8.77.11-33.18,25.4-66.48,50.65-99.74,75.96-4.42,3.36-4.95,3.28-6.71-1.99-7.23-21.63-14.34-43.31-21.6-64.93-10.87-32.35-21.9-64.65-32.73-97.01-6.03-18-12.17-35.96-18.97-53.69-.47-1.23-1.18-2.55.56-3.44,3.07,7.01,6.02,14.07,9.22,21.01,25.73,55.75,51.51,111.48,77.23,167.24,1.37,2.97,2.59,3.49,4.92.93,4.59-5.05,9.33-9.96,14.01-14.92,26.71-28.34,53.36-56.74,80.18-84.97,10.65-11.21,20.52-23.18,32.18-33.42,1.8.87,2.52,2.51,3.17,4.28,5.83,15.94,12.07,31.74,18.39,47.47,11.48,28.55,23.18,57.01,34.61,85.59,1.16,2.9,1.27,7.75,5.24,7.61,3.94-.14,4.4-4.92,5.65-8.03,8.37-20.83,16.57-41.72,24.89-62.57,4.68-11.74,9.62-23.37,14.22-35.14,5.26-13.46,9.58-27.29,16.3-40.15,14.19,14.98,28.39,29.95,42.55,44.95,15.88,16.82,31.71,33.69,47.6,50.51,12.23,12.94,24.55,25.8,36.76,38.77,2.14,2.27,3.52,2.03,4.75-.69,1.58-3.48,3.13-6.98,4.78-10.44,27.82-58.45,55.16-117.11,81.37-176.3,1.72,4.49-1.32,8.08-2.6,11.82-15.48,45.21-31.21,90.32-46.01,135.77-7.47,22.95-15.36,45.77-23.11,68.63-2.04,6.03-2.77,6.23-7.69,2.51-33.33-25.23-66.67-50.44-99.91-75.78-2.74-2.09-4.49-2.2-7.34-.16-26.25,18.82-52.55,37.56-79.01,56.07-4.6,3.22-6.38,6.69-6.36,12.34.2,56.65.11,113.3.1,169.94h-14Z"/>
  <path class="cls-8" d="M1394.66,851.85c4.6-.68,9.19-1.7,13.82-1.98,22.92-1.36,40.1,8.47,52.75,27.23,14.99,22.22,19.45,47.11,16.95,73.04-4.13,42.82-19.7,81.05-49.74,112.56-11.37,11.93-24.36,21.77-40.53,26.5-15.24,4.46-29.64,2.62-43.05-6.12-5.3-3.45-5.55-3.4-6.73,2.89-6.96,37.09-16.64,73.43-30.01,108.72-12.06,31.83-26.14,62.73-44.16,91.7-12.86,20.68-27.17,40.32-43.05,58.79-11.9,12.8-23.93,25.43-36.94,37.17-22.97,20.73-48.37,37.55-76.95,49.4-33.05,13.71-67.62,16.82-102.93,13.78-24.06-2.07-47.43-7.34-69.4-17.5-29.9-13.82-56.09-33.08-79.96-55.69-8.94-8.47-16.82-17.94-25.69-26.46-34.06-40.88-61.13-85.99-81.1-135.28-15.98-39.46-28.33-80.02-35.53-122.07-1.7-9.95-1.45-8.89-9.2-4.17-17.12,10.42-34.72,9.19-51.91.24-19.76-10.29-35.48-25.22-47.64-43.84-21.03-32.2-32.36-67.41-31.83-106.04.25-18.21,4.23-35.71,13.25-51.76,15.03-26.74,37.21-37.13,67.4-31.74.98.17,1.97.25,2.96.37,1.12,2.88,3.85,3.51,6.32,4.36,4.23,1.45,8.54,2.7,12.81,4.03,2.7,16.41,5.73,32.75,10.53,48.7,1.05,3.47,2.18,7.03,5.32,9.38,2.46,11.73,4.78,23.49,8.56,34.9,14.55,43.96,42.74,73.49,88.95,83.62,29.02,6.36,58.2,6.4,87.31.42,41.13-8.45,70.94-31.79,89.19-69.45,14.43-29.78,20.25-61.53,19.35-94.54-.08-2.75.03-4.73,2.97-5.97,25.01-10.53,50.06-11.38,75.28-.73,3.23,1.36,4.22,3.15,4.16,6.77-.55,32.26,5.11,63.33,18.82,92.7,15.27,32.71,39.36,55.66,74.04,67.01,24.99,8.18,50.66,9.52,76.59,7.82,20.63-1.35,40.58-6.12,58.98-15.72,27.96-14.58,44.73-38.56,55.01-67.67,3.95-11.18,6.28-22.78,8.81-34.32,5.89-8,7.53-17.58,9.96-26.85,3.19-12.18,4.54-24.78,8.26-36.84,6.18-2,13.12-2.16,17.98-7.38ZM1014.1,1223.03c7.6.13,15.91-.2,24.21-.96,33.76-3.12,65.79-11.75,94.92-29.7,8.24-5.08,16.12-10.66,23.42-16.98,5.5-4.76,4.72-11.36-1.25-13.7-3.7-1.46-6.43.52-9.02,2.74-20.12,17.26-43.64,27.97-68.85,35.11-39.27,11.13-78.9,10.66-118.69,2.86-12.47-2.44-24.36-6.79-36.45-10.46-4.05-1.23-7.45-.24-9.2,3.72-1.73,3.91-.11,7.16,3.18,9.57,2.45,1.8,5.35,2.65,8.19,3.63,28.77,9.99,58.42,14.41,89.55,14.17ZM1028.81,1094.94c-4.39.03-8.55-.96-12.64-2.56-9.78-3.84-19.13-8.58-28.5-13.29-9.38-4.71-9.52-4.96-7.86-15.45,6.43-40.61,12.89-81.22,19.28-121.84,2.48-15.79,5.35-31.52,7-47.43.3-2.92-.23-5.43-2.98-6.79-2.55-1.26-5.16-1.15-7.47.82-2.1,1.79-2.34,4.35-2.73,6.79-5.53,34.85-11.01,69.72-16.55,104.57-3.32,20.88-5.67,41.99-10.41,62.55-3.26,14.12,2.13,22.27,13.26,28.17,10.16,5.38,20.92,9.47,31.44,14.08,15.69,6.87,30.65,3.56,45.52-2.34,4.63-1.84,5.9-6.29,3.31-10.15-2.28-3.39-5.47-3.18-8.91-2.28-7.22,1.87-14.05,5.39-21.77,5.15ZM682.01,1005.19c-2.22-21.73-7.16-43.85-17.21-64.66-5.44-11.26-12.73-21.09-22.36-29.03-6.41-5.28-13.1-10.4-21.4-12.41-4.78-1.16-8.96.95-9.8,4.63-.99,4.32,1.42,7.06,5.07,8.64,21.33,9.23,32.58,27.18,40.68,47.58,6.06,15.26,8.5,31.4,10.16,47.68.56,5.52,3.47,7.8,8.11,7.4,4.63-.4,6.86-3.27,6.75-9.82ZM1368.43,1004.09c-.24,7.37,2.06,10.73,6.69,11.05,4.56.31,7.54-2.8,8.27-8.65.14-1.16.18-2.32.3-3.48,1.58-15.28,3.88-30.43,10.02-44.66,8.56-19.84,19.56-37.61,40.94-46.13.61-.24,1.13-.69,1.7-1.05,2.79-1.74,3.61-4.32,2.82-7.34-.81-3.1-3.1-4.62-6.22-4.9-2.74-.24-5.29.52-7.72,1.69-11.74,5.65-21.94,13.36-29.79,23.77-18.02,23.91-23.83,52-27.01,79.69ZM1024.26,1272.09c16.67-.01,30.31-1.92,43.44-6.65,5.38-1.94,7.64-5.91,6.19-9.78-1.42-3.78-5.04-4.88-10.71-2.85-19.97,7.15-40.26,8.38-60.94,3.72-1.45-.33-2.96-.49-4.45-.5-2.59-.01-4.4,1.22-5.3,3.74-.96,2.71-.26,4.86,1.93,6.65,1.6,1.31,3.46,1.95,5.4,2.48,8.9,2.4,17.98,3.32,24.44,3.19Z"/>
  <path class="cls-30" d="M657.57,618.18c.8-26.96,1.67-53.92,6.89-80.5.83-4.24.56-8.14-1.35-12.12-6.36-13.27-11.18-27.06-13.95-41.57-5.59-29.24,2.15-54.38,22.84-75.64,8.16-8.39,16.89-16.24,27.3-21.64,14.27-7.41,21.28-19.5,24.38-34.61,2.97-14.45,7.16-28.36,16.15-40.49,11.49-15.53,26.9-24.33,45.54-28.39,14.91-3.25,30.13-3.2,45.16-5.02,20.62-2.49,39.05-9.24,53.94-24.41,7.82-7.96,16.65-14.83,25.71-21.39,25.6-18.53,54.37-21.25,84.46-16.81,18.35,2.71,35.4,9.57,51.35,18.78,16.13,9.31,32.59,11.35,50.44,5.9,14.5-4.42,29.28-8.22,44.71-6.45,15.42,1.76,28.86,7.77,39.56,19.28,4.42,4.76,8.72,9.63,13.15,14.39,8.84,9.49,19.65,14.41,32.74,14.79,12.46.36,24.89.5,37.28,3.05,41.1,8.45,66.09,33.03,75.6,73.69.53,2.27,1.19,4.53,1.45,6.84,2.39,21.41,12.7,37.9,29.56,51.26,24.81,19.67,31.84,46.08,26.53,76.49-1.62,9.27-4.66,18.07-9.06,26.36-2.18,4.11-3.04,8.16-2.41,12.9,2.55,19.15,4.76,38.34,5.22,57.7.09,3.78,1.44,7.51.98,11.38,0,5.23,0,10.47,0,15.71q-2.48-5.03-7.98-5.38c-7.92-.53-15.92-1.97-23.75-1.37-10.3.79-20.01-1.51-29.9-3.22-1.25-.22-3.03-.99-1.8-2.67,4.28-5.88-.97-3.15-2.9-3.27-6.8-.44-13.82,2.52-20.44-1.56-1.47-.91-3.49-2.86-5.39-.97-1.65,1.64-.32,3.79.04,5.7.34,1.8,1.04,3.54,1.24,5.34,1.06,9.25,1.49,18.51-.19,27.74-.46-4.96-.51-9.94-.89-14.9-1.42-18.5-6.04-35.93-15.31-52.12-2.37-4.14-5.29-6.74-9.87-8.37-28.61-10.19-57.93-17.62-87.74-23.25-31.28-5.9-62.81-9.91-94.54-12.33-72.42-5.52-144.43-1.99-216.04,10-34.37,5.76-68.21,13.63-101.03,25.52-2.75.99-5.77,1.55-7.54,4.47-3.98,6.55-7.92,13.09-10.46,20.4-4.35,12.51-6.49,25.45-7.7,38.58-1.29,2.49-.96,5.2-.97,7.84-.04,10.9-.02,21.79-.02,32.69-.21-12.58-3.47-25.08-1.21-37.72.52-2.91.42-6,.13-8.96-.34-3.49-2.38-6.76-4.75-8.76-1.85-1.56-2,2.77-3.74,3.56-.87.4-1.87.6-2.83.71-2.47.28-4.96.48-7.44.68-3.04.25-5.41,1.08-5.96,4.74-.56,3.73-5.12,4.57-6.37,8.02-.27.76-1.68.45-2.01-.44-1.92-5.12-5.3-2.35-8.55-1.95-3.7.45-7.57,7-11.33.03-.1-.19-1.01-.14-1.41.05-2.27,1.09-4.01.57-5.77-1.22-1.38-1.39-3.4-1.5-5.16-.68-2.53,1.18-4.84.49-7.24-.31-3.31-1.1-6.67-1.64-10.22-1.83-4.85-.26-4.43,4.25-7.12,7.18v-11.46Z"/>
  <path class="cls-20" d="M1085.71,1716.06c-6.72,12.86-11.04,26.7-16.3,40.15-4.6,11.77-9.54,23.41-14.22,35.14-8.32,20.85-16.52,41.74-24.89,62.57-1.25,3.11-1.71,7.9-5.65,8.03-3.97.14-4.07-4.71-5.24-7.61-11.43-28.57-23.12-57.04-34.61-85.59-6.33-15.73-12.56-31.53-18.39-47.47-.65-1.77-1.37-3.4-3.17-4.28-2.15-5.87-7.27-9.35-11.36-13.53-38.35-39.15-76.9-78.11-115.34-117.18-6.18-6.28-12.84-12.14-17.91-19.45.58-2.42,1.3-4.82,1.72-7.27,4.42-25.74,8.28-51.49,9.66-77.66,1.6-30.44,3-60.85,2.57-91.33-.1-7.32-1.68-14.58-.76-21.93,8.37,12.02,17.04,23.82,26.35,35.14,30.72,37.35,65.04,70.41,109.04,92.05,51.38,25.27,104.04,28.02,157.24,7.22,35.36-13.82,65.8-35.43,90.82-64.29.83-.96,1.46-3.65,3.66-1.33.61,17.63,1.22,35.25,1.83,52.87-.1,1.97-.45,3.97-.28,5.92,2,22.45,5.12,44.77,8.41,67.06.23,1.53.99,2.8,2.07,3.88-5.22,6.96-11.73,12.69-17.8,18.85-38.42,39.01-76.83,78.02-115.16,117.1-4.16,4.24-8.86,7.98-12.29,12.91Z"/>
  <path class="cls-7" d="M1085.71,1716.06c3.44-4.93,8.14-8.68,12.29-12.91,38.33-39.09,76.74-78.1,115.16-117.1,6.07-6.16,12.58-11.89,17.8-18.85,4.17-3.23,6.95-7.45,8.88-12.31,3.9-9.84,7.17-19.9,10.1-30.07.62-2.13.69-4.69,3.19-5.85,11.69,22.1,20.61,45.44,30.6,68.3,7.46,17.08,14.93,34.15,22.37,51.24.93,2.13,1.71,4.32,2.55,6.48.69,6.65-3.82,11.8-5.12,17.88-26.21,59.19-53.56,117.85-81.37,176.3-1.64,3.45-3.2,6.95-4.78,10.44-1.23,2.72-2.61,2.97-4.75.69-12.21-12.96-24.53-25.83-36.76-38.77-15.89-16.81-31.72-33.69-47.6-50.51-14.16-15-28.37-29.97-42.55-44.95Z"/>
  <path class="cls-7" d="M818.63,1566.85c5.07,7.31,11.73,13.17,17.91,19.46,38.43,39.07,76.99,78.02,115.34,117.18,4.09,4.18,9.21,7.66,11.36,13.53-11.66,10.24-21.53,22.21-32.18,33.42-26.82,28.23-53.47,56.64-80.18,84.97-4.68,4.96-9.42,9.88-14.01,14.92-2.33,2.56-3.55,2.05-4.92-.93-25.71-55.76-51.5-111.48-77.23-167.24-3.2-6.94-6.15-14.01-9.22-21.01-1.64-4.71-3.29-9.42-4.93-14.12,6.96-16.36,13.84-32.76,20.91-49.07,11.06-25.49,22.24-50.92,33.42-76.36.44-1,.75-2.25,2.05-2.65,3.77,10.23,7.51,20.47,11.34,30.68,2.39,6.35,4.66,12.81,10.33,17.21Z"/>
  <path class="cls-27" d="M1218.93,1437.45c-2.2-2.32-2.83.37-3.66,1.33-25.02,28.87-55.46,50.47-90.82,64.29-53.2,20.8-105.86,18.05-157.24-7.22-43.99-21.64-78.32-54.7-109.04-92.05-9.31-11.32-17.98-23.12-26.35-35.14-1.72-3.36-.77-7.26-2.11-10.7-.27-4.03-1.41-8-.66-12.08,8.87,8.52,16.74,17.99,25.69,26.46,23.87,22.61,50.06,41.87,79.96,55.69,21.97,10.16,45.34,15.43,69.4,17.5,35.31,3.04,69.88-.07,102.93-13.78,28.58-11.85,53.98-28.67,76.95-49.4,13.01-11.74,25.04-24.37,36.94-37.17.9,7.46-.3,14.88-.66,22.29-1.12,22.69-1.73,45.37-1.07,68.07.02.63-.16,1.27-.25,1.9Z"/>
  <path class="cls-17" d="M1394.66,851.85c-4.86,5.22-11.8,5.37-17.98,7.38-4.22.2-7.89,2.51-12,3.13-2.95.45-3.62,2.13-3.31,4.95,1.17,10.62.86,21.26-.08,31.87-.7,7.94-1.87,15.83-2.82,23.74-2.53,11.54-4.87,23.14-8.81,34.32-10.28,29.11-27.06,53.09-55.01,67.67-18.4,9.6-38.35,14.37-58.98,15.72-25.93,1.7-51.6.35-76.59-7.82-34.68-11.35-58.77-34.3-74.04-67.01-13.71-29.38-19.37-60.44-18.82-92.7.06-3.61-.93-5.4-4.16-6.77-25.22-10.65-50.27-9.81-75.28.73-2.94,1.24-3.04,3.22-2.97,5.97.9,33-4.92,64.76-19.35,94.54-18.25,37.66-48.06,61-89.19,69.45-29.11,5.98-58.29,5.95-87.31-.42-46.22-10.13-74.41-39.66-88.95-83.62-3.78-11.41-6.1-23.17-8.56-34.9-1.18-14.24-3.13-28.42-2.58-42.77.49-12.96.26-13.16-12.77-15.33-.16-.03-.33.02-.5.03-4.27-1.33-8.58-2.58-12.81-4.03-2.47-.85-5.2-1.48-6.32-4.36,1.23-7.02,2.42-8,8.95-7.44,2.7.78,5.4,1.56,8.1,2.34,3.35,1.01,6.67,2.1,10.04,3.01,8.62,2.32,8.63,2.28,11.69-5.75.47-1.24.91-2.49,1.37-3.74,3.25-5.46,6.88-10.61,11.69-14.85,16.18-14.29,36.14-19.88,56.61-23,37.5-5.72,75.27-6.68,113.12-3.33,23.5,2.08,46.63,5.68,68.52,15,16.81,7.15,28.94,18.85,34.32,36.6,1.22,4.03,2.51,4.21,6.09,2.9,26.38-9.67,52.86-9.39,79.21.09,3.4,1.22,3.86-.11,4.68-2.63,6.06-18.72,18.87-30.83,36.92-38.06,11.51-4.61,23.38-7.91,35.52-10.02,35.15-6.1,70.59-6.87,106.1-4.58,22.62,1.46,45.19,3.54,66.72,11.51,16.31,6.03,30.72,14.48,39.57,30.25.79,2.33,1.75,4.62,2.33,6.99.87,3.53,2.82,4.41,6.2,3.35,5.34-1.67,10.75-3.1,16.12-4.64,1.45-.28,2.9-.56,4.35-.85,7.67-1.52,8.99-.67,11,7.08ZM1216.12,808.74c-37.38.07-67.88,3.5-91.58,10.27-31.94,9.13-45.69,26.02-46.24,57.9-.5,29.05,5,57.11,17.33,83.44,16.09,34.36,42.42,56.76,79.95,64.83,26.88,5.78,53.99,6.03,80.91.67,31.25-6.22,56.51-21.98,71.9-50.57,18.47-34.32,23.78-71.46,20.47-109.92-1.72-20.02-12.43-34.03-30.98-41.87-6.6-2.79-13.46-4.86-20.42-6.59-26.72-6.67-53.94-8.29-81.34-8.17ZM833.91,808.8c-13.84-.28-27.65.44-41.43,1.6-17.79,1.5-35.34,4.43-52.39,9.94-23.14,7.48-37.56,22.36-39.36,47.38-2.38,33.05,1.82,65.19,15.14,95.75,14.02,32.17,38.01,52.93,72.27,61.15,26.27,6.3,52.89,6.44,79.4,2.01,31.06-5.18,56.89-19.88,74.98-46.01,23.32-33.68,30.68-71.88,28.69-112.1-.66-13.28-5.61-25.22-16.2-34.3-9.76-8.37-21.22-13.07-33.41-16.14-28.77-7.26-58.1-9.61-87.69-9.27Z"/>
  <path class="cls-22" d="M657.57,618.18v11.46c2.69-2.93,2.28-7.44,7.12-7.18,3.56.19,6.91.73,10.22,1.83,2.4.8,4.71,1.49,7.24.31,1.76-.82,3.78-.7,5.16.68,1.77,1.78,3.51,2.3,5.77,1.22.41-.2,1.31-.24,1.41-.05,3.75,6.97,7.63.42,11.33-.03,3.25-.4,6.63-3.16,8.55,1.95.33.89,1.74,1.2,2.01.44,1.25-3.45,5.81-4.29,6.37-8.02.55-3.65,2.92-4.48,5.96-4.74,2.48-.21,4.97-.4,7.44-.68.96-.11,1.95-.31,2.83-.71,1.74-.79,1.89-5.12,3.74-3.56,2.37,2,4.4,5.27,4.75,8.76.29,2.96.39,6.05-.13,8.96-2.26,12.64,1,25.14,1.21,37.72,0-10.9-.03-21.79.02-32.69.01-2.64-.32-5.35.97-7.84-.04,15.92-.02,31.85-.18,47.77-.03,3.46-.39,6.97-1.84,10.23-1.23.78-2.38,1.38-3.13-.6-.57-1.52-1.64-2.61-3.37-2.44-5.72.56-10.71-.62-14.45-5.39-.93-1.18-2.32-.84-3.69-.68-6.54.74-12.7-.45-18.18-4.22-2.38-1.64-5.36-2.75-7.4-.99-4.53,3.9-8.79.86-11.53-1.17-3.93-2.9-9.4,1.31-12.36-3.69-.26-.45-1.86,1.51-2.76,2.45-2.03,2.13-3.49,5.03-6.78,5.56-3.32.53-4.35,2.61-4.26,5.65.15,5.18-.59,10.26-1.68,15.3-1.48-19.84-1.05-39.71-1.34-59.58.5-5.33-.46-10.75.99-16.02Z"/>
  <path class="cls-26" d="M1392.28,703.27c.76,13.99-1.68,27.82-2.3,41.74-.2,4.59.19,9.35-1.56,13.81-1.39-3.22-.55-6.95-2.41-10.12-1.42-2.42-2.95-3.12-5.08-.99-4.8,4.8-10.92,6.86-17.35,7.88-3.57.56-6.25,1.65-9.01,4.27-2.97,2.83-7.52,4.05-7.1,9.4.02.27-.74.6-1.13.9-.26-.77-.58-1.52-.77-2.31-1.89-8.16-2.94-16.39-7.34-24.01-8.7-15.07-17.45-30.11-26.83-44.77,1.48-3.95-2.42-6.25-2.99-9.99,3.16.72,5.39-2.22,8.93-1.35,4.87,1.2,10,1.87,15.03.1,1.72-.61,3.6-1.03,5.38-.4,5.07,1.8,10.4,1.92,15.66,2.57,1.13.14,2.91-.09,3.03,1.14.55,5.62,5.15,4.54,8.51,5.28,1.8.4,3.64.59,5.11,1.73,2.48,1.93,5.15,1.78,8.04,1.27,10.87-1.91,12.13-.8,12.51,10.5.02.55.16,1.1.38,2.64,1.03-3.73.09-6.66,1.28-9.3Z"/>
  <path class="cls-4" d="M1392.28,703.27c-1.2,2.65-.25,5.57-1.28,9.3-.23-1.53-.37-2.08-.38-2.64-.38-11.31-1.63-12.41-12.51-10.5-2.9.51-5.56.66-8.04-1.27-1.47-1.14-3.31-1.33-5.11-1.73-3.36-.74-7.96.34-8.51-5.28-.12-1.23-1.9-1-3.03-1.14-5.25-.64-10.58-.76-15.66-2.57-1.79-.63-3.66-.21-5.38.4-5.03,1.77-10.16,1.1-15.03-.1-3.53-.87-5.77,2.07-8.93,1.35.56,3.73,4.47,6.04,2.99,9.99-3.61-4.61-7.13-9.29-9.21-14.85.3-.76.92-1.56.84-2.28-1.03-8.48-.37-16.84,1.63-25.12.48-1.99.21-5.09,3.27-4.53,3.72.68,6.39-1.23,9.42-2.4,2.8-1.08,5.62-2.38,8.57-.54,5.19,3.25,11.04,2.85,16.63,2.41,5.76-.45,11.39-2.5,17.15-2.95,7.46-.58,14.29-2.46,20.47-6.68,1.42-.97,2.7-.36,4.19.16,6.05,2.12,7.77,7.16,8.99,12.62.83,16.14.22,32.25-1.08,48.35Z"/>
  <path class="cls-19" d="M1393.37,654.92c-1.22-5.47-2.93-10.51-8.99-12.62-1.5-.52-2.78-1.13-4.19-.16-6.18,4.23-13.01,6.1-20.47,6.68-5.76.45-11.39,2.5-17.15,2.95-5.6.43-11.44.83-16.63-2.41-2.95-1.84-5.76-.55-8.57.54-3.03,1.17-5.71,3.09-9.42,2.4-3.06-.56-2.79,2.54-3.27,4.53-2,8.28-2.66,16.64-1.63,25.12.09.72-.54,1.52-.84,2.28-.89-1.77-1.59-3.6-1.63-5.6-.29-13.54-.6-27.08.08-40.62,1.68-9.24,1.26-18.49.19-27.74-.21-1.8-.9-3.55-1.24-5.34-.36-1.9-1.68-4.06-.04-5.7,1.9-1.89,3.92.06,5.39.97,6.62,4.09,13.63,1.12,20.44,1.56,1.93.13,7.18-2.6,2.9,3.27-1.23,1.68.55,2.45,1.8,2.67,9.89,1.72,19.6,4.01,29.9,3.22,7.84-.6,15.83.84,23.75,1.37q5.5.37,7.98,5.38c0-5.24,0-10.47,0-15.71,1.55,9.17,1.01,18.45,1.54,27.68.49,8.4.11,16.85.11,25.28Z"/>
  <path class="cls-31" d="M1346.35,770.15c.4-.3,1.15-.63,1.13-.9-.41-5.34,4.13-6.57,7.1-9.4,2.76-2.62,5.44-3.71,9.01-4.27,6.43-1.01,12.54-3.08,17.35-7.88,2.13-2.13,3.66-1.43,5.08.99,1.86,3.16,1.01,6.89,2.41,10.12.59,10.5-1.32,20.82-2.51,31.16-1.95,16.95-4.6,33.82-6.86,50.73-.21,1.6.16,3.27.26,4.91-5.38,1.53-10.79,2.97-16.13,4.63-3.38,1.06-5.33.18-6.2-3.35-.59-2.38-1.54-4.67-2.33-6.99.91-1.44.21-2.9.09-4.37-1.86-21.92-4.82-43.69-8.39-65.39Z"/>
  <path class="cls-18" d="M829.71,1357.97c1.34,3.44.39,7.33,2.11,10.7-.92,7.35.66,14.61.76,21.93.42,30.48-.97,60.89-2.57,91.33-1.38,26.17-5.24,51.93-9.66,77.66-.42,2.45-1.14,4.85-1.72,7.27-5.67-4.4-7.94-10.86-10.33-17.21-3.84-10.21-7.57-20.45-11.34-30.68,7.29-4.33,14.98-7.9,23.01-10.49,5.47-1.76,7.87-4.36,8.15-10.48,1.86-41.35,4.82-82.66,2.18-124.09-.34-5.3-.39-10.62-.58-15.93Z"/>
  <path class="cls-24" d="M1253.13,1518.96c-2.51,1.15-2.58,3.71-3.19,5.85-2.93,10.17-6.2,20.22-10.1,30.07-1.93,4.86-4.71,9.08-8.88,12.31-1.08-1.08-1.84-2.35-2.07-3.88-3.29-22.29-6.41-44.61-8.41-67.06-.17-1.95.17-3.95.28-5.92.25,1.63.88,3.3.68,4.86-.94,7.21,2.66,10.58,9.12,12.88,7.86,2.8,15.68,5.96,22.57,10.89Z"/>
  <path class="cls-33" d="M656.58,634.2c.3,19.86-.14,39.74,1.34,59.58.25,6.73.39,13.47.8,20.19.35,5.72.46,11.49,1.9,17.1-.48,6.5.41,12.95,1.07,19.38,1.06,10.21,2.57,20.38,3.89,30.57-.07,9.46,1.58,18.76,2.52,28.13,1.24,12.48,4.71,24.7,4.4,37.37-2.7-.78-5.4-1.56-8.1-2.34,5.28-1.27,5.79-2.36,4.89-9.22-1.98-15.01-4.06-30-5.75-45.04-2.27-20.15-4.11-40.34-5.24-60.61-1.63-29.41-3.08-58.8-2.64-88.25.04-2.31-.33-4.69.91-6.84Z"/>
  <path class="cls-29" d="M1014.1,1223.03c-31.13.24-60.78-4.18-89.55-14.17-2.83-.98-5.74-1.84-8.19-3.63-3.28-2.41-4.91-5.66-3.18-9.57,1.75-3.95,5.14-4.94,9.2-3.72,12.1,3.66,23.99,8.02,36.45,10.46,39.79,7.8,79.42,8.26,118.69-2.86,25.21-7.14,48.73-17.86,68.85-35.11,2.58-2.21,5.32-4.19,9.02-2.74,5.96,2.35,6.75,8.94,1.25,13.7-7.3,6.32-15.18,11.9-23.42,16.98-29.13,17.95-61.16,26.58-94.92,29.7-8.3.77-16.61,1.09-24.21.96Z"/>
  <path class="cls-29" d="M1028.81,1094.94c7.72.24,14.55-3.28,21.77-5.15,3.44-.89,6.63-1.11,8.91,2.28,2.59,3.86,1.32,8.31-3.31,10.15-14.87,5.9-29.82,9.22-45.52,2.34-10.52-4.61-21.29-8.7-31.44-14.08-11.13-5.9-16.52-14.05-13.26-28.17,4.74-20.56,7.1-41.67,10.41-62.55,5.53-34.85,11.01-69.72,16.55-104.57.39-2.45.62-5,2.73-6.79,2.31-1.97,4.92-2.08,7.47-.82,2.75,1.36,3.28,3.88,2.98,6.79-1.65,15.91-4.52,31.65-7,47.43-6.39,40.62-12.85,81.23-19.28,121.84-1.66,10.49-1.52,10.74,7.86,15.45,9.37,4.71,18.72,9.45,28.5,13.29,4.09,1.6,8.24,2.6,12.64,2.56Z"/>
  <path class="cls-28" d="M682.01,1005.19c.11,6.55-2.12,9.43-6.75,9.82-4.63.4-7.54-1.88-8.11-7.4-1.66-16.28-4.1-32.42-10.16-47.68-8.1-20.4-19.35-38.34-40.68-47.58-3.65-1.58-6.06-4.32-5.07-8.64.85-3.68,5.02-5.78,9.8-4.63,8.3,2.01,15,7.13,21.4,12.41,9.62,7.93,16.92,17.76,22.36,29.03,10.05,20.81,14.99,42.93,17.21,64.66Z"/>
  <path class="cls-23" d="M1368.43,1004.09c3.18-27.69,8.99-55.78,27.01-79.69,7.85-10.41,18.05-18.12,29.79-23.77,2.43-1.17,4.98-1.94,7.72-1.69,3.12.28,5.4,1.8,6.22,4.9.79,3.03-.03,5.6-2.82,7.34-.56.35-1.09.8-1.7,1.05-21.37,8.52-32.38,26.29-40.94,46.13-6.14,14.23-8.44,29.38-10.02,44.66-.12,1.16-.16,2.33-.3,3.48-.73,5.85-3.71,8.96-8.27,8.65-4.63-.31-6.93-3.67-6.69-11.05Z"/>
  <path class="cls-21" d="M1024.26,1272.09c-6.45.14-15.53-.79-24.44-3.19-1.94-.52-3.8-1.17-5.4-2.48-2.2-1.8-2.9-3.94-1.93-6.65.9-2.52,2.71-3.75,5.3-3.74,1.49,0,3,.18,4.45.5,20.68,4.65,40.97,3.42,60.94-3.72,5.66-2.03,9.28-.93,10.71,2.85,1.45,3.86-.8,7.84-6.19,9.78-13.13,4.73-26.76,6.64-43.44,6.65Z"/>
  <path class="cls-14" d="M1358.47,922.92c.96-7.91,2.12-15.81,2.82-23.74.94-10.61,1.25-21.25.08-31.87-.31-2.82.36-4.51,3.31-4.95,4.11-.62,7.78-2.93,12-3.13-3.72,12.06-5.07,24.66-8.26,36.84-2.43,9.28-4.06,18.86-9.96,26.85Z"/>
  <path class="cls-1" d="M674.59,860c.17-.01.34-.05.5-.03,13.03,2.18,13.26,2.38,12.77,15.33-.54,14.35,1.4,28.53,2.58,42.77-3.14-2.35-4.27-5.91-5.32-9.38-4.8-15.95-7.83-32.29-10.53-48.7Z"/>
  <path class="cls-10" d="M1346.35,770.15c3.57,21.7,6.53,43.47,8.39,65.39.12,1.47.82,2.93-.09,4.37-8.84-15.77-23.25-24.22-39.57-30.25-21.54-7.97-44.1-10.05-66.72-11.51-35.51-2.29-70.95-1.52-106.1,4.58-12.14,2.11-24.01,5.41-35.52,10.02-18.05,7.23-30.86,19.34-36.92,38.06-.82,2.52-1.27,3.86-4.68,2.63-26.35-9.48-52.83-9.76-79.21-.09-3.57,1.31-4.87,1.13-6.09-2.9-5.37-17.76-17.51-29.45-34.32-36.6-21.89-9.32-45.02-12.92-68.52-15-37.85-3.34-75.62-2.39-113.12,3.33-20.47,3.12-40.43,8.71-56.61,23-4.81,4.25-8.44,9.39-11.69,14.85-.76-7.28.7-14.44,1.39-21.62,1.31-13.49,3.04-26.94,4.6-40.41-.49-5.61,2.42-10.6,2.96-16.02.31-4.1.42-8.35,2.91-11.81,5.64-7.85,9.61-16.61,14.3-24.98,1.56-1.38,2.36-3.21,3.05-5.11,3.97-6.12,7.99-12.2,11.88-18.36,3.7-5.85,8.71-10.91,10.82-17.73,1.45-3.26,1.8-6.77,1.84-10.23.16-15.92.14-31.85.18-47.77,1.21-13.13,3.35-26.07,7.7-38.58,2.54-7.3,6.48-13.84,10.46-20.4,1.77-2.92,4.79-3.48,7.54-4.47,32.82-11.89,66.65-19.76,101.03-25.52,71.62-11.99,143.62-15.52,216.04-10,31.73,2.42,63.26,6.43,94.54,12.33,29.82,5.62,59.13,13.05,87.74,23.25,4.58,1.63,7.5,4.22,9.87,8.37,9.27,16.19,13.89,33.61,15.31,52.12.38,4.97.43,9.95.89,14.9-.67,13.54-.37,27.08-.08,40.62.04,2.01.74,3.84,1.63,5.6,2.08,5.56,5.59,10.24,9.21,14.85,9.38,14.66,18.13,29.69,26.83,44.77,4.4,7.62,5.45,15.84,7.34,24.01.18.79.51,1.54.77,2.31ZM852.31,745.19c-11.51-.07-22.99.47-34.41,1.96-27.95,3.65-49.7,17.92-67.22,39.37-2.43,2.97-4.47,6.3-4.98,10.22-.64,4.96,2.16,7.24,6.88,5.6,2.67-.93,5.25-2.13,7.79-3.36,17.03-8.23,34.43-15.45,53.62-16.36,23.77-1.12,47.21,2.37,70.6,5.99,13.16,2.04,26.25,4.57,39.39,6.79,4.69.79,9.01-.08,12.2-3.98,10.96-13.38,4.15-34.65-12.48-38.46-23.48-5.38-47.34-7.61-71.4-7.77ZM1199.4,745.2c-26.7.44-51.9,2.44-76.58,8.68-9.33,2.36-12.89,7.08-13.49,16.74-.16,2.65-.07,5.33.14,7.98,1.12,14.01,6.45,18.27,20.19,16.26.99-.14,1.98-.29,2.96-.47,24.55-4.56,49.2-8.35,74.05-11.09,29.11-3.21,56.35,1.5,82.02,15.58,2.9,1.59,6,2.94,9.14,3.98,4.51,1.49,7.06-.79,6.44-5.57-.51-3.93-2.51-7.26-4.91-10.25-12.4-15.49-27.41-27.6-46.12-34.71-17.81-6.77-36.54-6.71-53.86-7.12Z"/>
  <path class="cls-6" d="M1216.12,808.74c27.4-.13,54.62,1.49,81.34,8.17,6.97,1.74,13.82,3.8,20.42,6.59,18.55,7.84,29.25,21.84,30.98,41.87,3.31,38.46-2,75.61-20.47,109.92-15.39,28.59-40.65,44.35-71.9,50.57-26.92,5.36-54.03,5.11-80.91-.67-37.53-8.07-63.86-30.47-79.95-64.83-12.33-26.33-17.82-54.39-17.33-83.44.55-31.88,14.3-48.77,46.24-57.9,23.7-6.78,54.2-10.21,91.58-10.27ZM1217.24,887.09c-.24-11.61-2.54-21.53-9.19-30.01-9.19-11.72-22.18-11.91-31.73-.57-12.19,14.48-13.03,41.8-1.75,57.04,10.28,13.88,26.64,13.35,35.73-1.31,4.95-7.97,6.74-16.9,6.94-25.15Z"/>
  <path class="cls-9" d="M833.91,808.8c29.59-.34,58.92,2.01,87.69,9.27,12.2,3.08,23.65,7.77,33.41,16.14,10.59,9.08,15.54,21.02,16.2,34.3,1.99,40.22-5.38,78.42-28.69,112.1-18.09,26.13-43.93,40.83-74.98,46.01-26.51,4.42-53.13,4.28-79.4-2.01-34.26-8.21-58.25-28.98-72.27-61.15-13.32-30.56-17.52-62.7-15.14-95.75,1.8-25.01,16.22-39.9,39.36-47.38,17.05-5.51,34.6-8.44,52.39-9.94,13.78-1.16,27.59-1.87,41.42-1.59ZM883.27,890.61c.28-14.92-2.21-25.77-9.98-34.85-8.55-9.99-20.36-10.16-29.44-.59-13.43,14.16-14.37,44.04-1.86,59.42,10.25,12.61,25.13,11.91,34.11-1.68,5.11-7.73,7.19-16.38,7.17-22.31Z"/>
  <path class="cls-25" d="M701.59,778c-1.56,13.47-3.29,26.92-4.6,40.41-.7,7.18-2.15,14.34-1.39,21.62-.46,1.25-.9,2.5-1.37,3.74-3.05,8.04-3.06,8.07-11.69,5.75-3.37-.91-6.7-2-10.04-3.01.32-12.66-3.16-24.88-4.4-37.36-.93-9.37-2.59-18.67-2.52-28.13,0-1.49.06-2.97,0-4.46-.12-3.1.32-6.01,3.06-7.95,3.17-2.24,8.68-3.37,10.37-2.42,4.08,2.28,8.13,2.29,12.23,2.7,4.67.47,7.05,3,8.3,7.16.3,1.01-.43,3.21,2.05,1.95Z"/>
  <path class="cls-12" d="M747.52,684c-2.11,6.82-7.13,11.87-10.82,17.73-3.89,6.16-7.92,12.24-11.88,18.36-2.63-.12-1.48-1.47-.86-2.64,1.69-3.19,3.4-6.37,5.15-9.65-5.9,1.88-11.43,4.93-17.04,5.09-5.77.17-7.79,2.25-8.49,7.2-.22,1.54-.48,3.17-2.67,2.67-3.61-.82-5.28,1.17-7.07,3.97-2.95,4.6-10.57,5.79-12.89,1.82-2.73-4.68-6.49-4.11-10.79-4.95-7.07-1.37-9.32,1.21-9.53,7.48-1.44-5.61-1.55-11.38-1.9-17.1-.41-6.72-.54-13.46-.8-20.19,1.1-5.04,1.84-10.13,1.68-15.3-.09-3.04.94-5.12,4.26-5.65,3.29-.53,4.74-3.43,6.78-5.56.9-.94,2.5-2.9,2.76-2.45,2.96,5,8.43.79,12.36,3.69,2.74,2.03,7,5.07,11.53,1.17,2.04-1.76,5.02-.65,7.4.99,5.49,3.78,11.64,4.97,18.18,4.22,1.38-.16,2.76-.5,3.69.68,3.74,4.76,8.74,5.95,14.45,5.39,1.73-.17,2.8.92,3.37,2.44.74,1.98,1.9,1.38,3.13.6Z"/>
  <path class="cls-15" d="M660.62,731.08c.22-6.27,2.46-8.85,9.53-7.48,4.3.83,8.06.27,10.79,4.95,2.31,3.96,9.93,2.77,12.89-1.82,1.79-2.79,3.46-4.78,7.07-3.97,2.19.5,2.45-1.13,2.67-2.67.7-4.95,2.73-7.03,8.49-7.2,5.61-.16,11.14-3.21,17.04-5.09-1.75,3.28-3.45,6.46-5.15,9.65-.62,1.17-1.77,2.52.86,2.64-.69,1.9-1.49,3.73-3.05,5.11-2.73-.85-3.61,1.49-4.36,3.05-1.44,3.01-2.96,4.54-6.76,4.12-4.51-.49-7.79,4.53-5.36,8.56,2.32,3.86.95,6.61-.27,10.1-1.2,3.44-3.88,7.19-.47,10.96-.54,5.42-3.45,10.4-2.96,16.02-2.49,1.26-1.75-.94-2.05-1.95-1.24-4.16-3.63-6.69-8.3-7.16-4.09-.41-8.15-.43-12.23-2.7-1.69-.95-7.2.18-10.37,2.42-2.73,1.94-3.17,4.85-3.06,7.95.06,1.48,0,2.97,0,4.46-1.32-10.19-2.83-20.35-3.89-30.57-.67-6.42-1.55-12.87-1.07-19.38Z"/>
  <path class="cls-16" d="M852.31,745.19c24.07.16,47.92,2.39,71.4,7.77,16.64,3.81,23.45,25.07,12.48,38.46-3.19,3.9-7.51,4.77-12.2,3.98-13.14-2.22-26.22-4.75-39.39-6.79-23.39-3.62-46.83-7.11-70.6-5.99-19.19.91-36.59,8.13-53.62,16.36-2.55,1.23-5.13,2.43-7.79,3.36-4.72,1.64-7.51-.63-6.88-5.6.5-3.92,2.55-7.25,4.98-10.22,17.51-21.45,39.27-35.72,67.22-39.37,11.42-1.49,22.9-2.03,34.41-1.96Z"/>
  <path class="cls-2" d="M1199.4,745.2c17.32.42,36.04.36,53.86,7.12,18.71,7.11,33.71,19.22,46.12,34.71,2.4,3,4.4,6.32,4.91,10.25.62,4.78-1.92,7.06-6.44,5.57-3.14-1.04-6.24-2.38-9.14-3.98-25.67-14.08-52.9-18.79-82.02-15.58-24.85,2.74-49.5,6.53-74.05,11.09-.98.18-1.97.33-2.96.47-13.74,2-19.07-2.26-20.19-16.26-.21-2.65-.31-5.33-.14-7.98.6-9.66,4.15-14.38,13.49-16.74,24.68-6.23,49.88-8.23,76.58-8.68Z"/>
  <path class="cls-12" d="M704.55,761.99c-3.41-3.78-.73-7.53.47-10.96,1.22-3.49,2.59-6.24.27-10.1-2.42-4.03.86-9.06,5.36-8.56,3.8.42,5.32-1.11,6.76-4.12.74-1.56,1.63-3.89,4.36-3.05-4.69,8.37-8.67,17.14-14.3,24.98-2.49,3.46-2.59,7.71-2.91,11.81Z"/>
  <path class="cls-32" d="M1217.24,887.09c-.19,8.25-1.99,17.17-6.94,25.15-9.1,14.66-25.45,15.19-35.73,1.31-11.28-15.24-10.45-42.56,1.75-57.04,9.55-11.34,22.54-11.15,31.73.57,6.65,8.48,8.95,18.4,9.19,30.01Z"/>
  <path class="cls-13" d="M883.27,890.61c.01,5.93-2.06,14.58-7.17,22.31-8.98,13.59-23.86,14.28-34.11,1.68-12.51-15.38-11.57-45.27,1.86-59.42,9.08-9.57,20.88-9.4,29.44.59,7.78,9.08,10.27,19.93,9.98,34.85Z"/>
</svg>